<svg xmlns="http://www.w3.org/2000/svg" viewBox="0 0 571.07 433.93"><defs><style>.cls-1,.cls-10,.cls-11,.cls-12,.cls-13,.cls-2,.cls-3,.cls-4,.cls-5,.cls-6,.cls-9{stroke:#b3b3b3;stroke-miterlimit:10;}.cls-1{stroke-width:3.39px;}.cls-10,.cls-2,.cls-3,.cls-4,.cls-5,.cls-6{fill:#fbb03b;}.cls-2{stroke-width:3.31px;}.cls-3{stroke-width:3.36px;}.cls-4{stroke-width:3.4px;}.cls-5{stroke-width:3.39px;}.cls-6{stroke-width:3.32px;}.cls-7,.cls-9{fill:#ccc;}.cls-8{fill:#b3b3b3;}.cls-10,.cls-9{stroke-width:3.72px;}.cls-11,.cls-12,.cls-13{fill:#f7931e;}.cls-11{stroke-width:4.06px;}.cls-12{stroke-width:4.06px;}.cls-13{stroke-width:4.06px;}.cls-14{font-size:47px;font-family:MyriadPro-Regular, Myriad Pro;}</style></defs><title>buggv3</title><g id="Layer_2" data-name="Layer 2"><g id="BuggBrandLogo"><rect class="cls-1" x="147.97" y="368.56" width="52.17" height="52.17" transform="translate(330.03 -7.49) rotate(45)"/><path class="cls-2" d="M286.29,75.84,73.53,73.6C98.35,32.35,134.66,1.21,177.42,1.66,222.24,2.13,261.73,31.23,286.29,75.84Z"/><path class="cls-3" d="M315.25,156.43,37.87,153.5A248.93,248.93,0,0,1,68.58,81.59l221.68,2.34A205.87,205.87,0,0,1,315.25,156.43Z"/><path class="cls-4" d="M319,202.48a231.13,231.13,0,0,1-3.2,36.07l-285.31-3a200.62,200.62,0,0,1-1-36.11,209.36,209.36,0,0,1,6-36.87l281,3A231,231,0,0,1,319,202.48Z"/><path class="cls-5" d="M314.38,247.74A209.12,209.12,0,0,1,288,320.5L54.45,318c-15-25.55-21.11-52.39-23.49-73.28Z"/><path class="cls-6" d="M283.7,328.72c-23.14,40.19-58.44,67.41-98.48,72l-25.6-.27C128.21,396,104.38,377,94.07,368.35a149.76,149.76,0,0,1-34.73-42Z"/><path class="cls-7" d="M71.78,402.28a48.92,48.92,0,0,1-9-.83c-46.27-8.61-71.53-82.17-56.31-164,6.9-37,21.3-71.09,40.57-95.86,18.93-24.33,40.94-37.73,62-37.73a50,50,0,0,1,9,.82c46.27,8.61,71.53,82.18,56.3,164-6.89,37.05-21.3,71.1-40.57,95.87C114.84,388.88,92.82,402.28,71.78,402.28Z"/><path class="cls-8" d="M109.06,101.79v4.14h0a46.61,46.61,0,0,1,8.59.79c21.43,4,39,22.69,49.42,52.65,10.72,30.77,12.57,69.45,5.23,108.93-6.84,36.74-21.1,70.47-40.17,95-18.53,23.81-40,36.93-60.35,36.93a47.5,47.5,0,0,1-8.59-.79c-21.44-4-39-22.69-49.43-52.66C3.05,316,1.19,277.32,8.54,237.83c6.83-36.73,21.1-70.46,40.16-95,18.53-23.82,40-36.93,60.35-36.93v-4.14m0,0c-44.64,0-90.14,57.65-104.58,135.29C-11,320.15,15,394.66,62.43,403.49a50.91,50.91,0,0,0,9.35.86c44.64,0,90.14-57.65,104.59-135.29,15.46-83.07-10.5-157.58-58-166.41a50.75,50.75,0,0,0-9.35-.86Z"/><polygon class="cls-7" points="419.69 248.34 344.24 287.39 269.63 246.77 270.46 167.1 345.92 128.05 420.53 168.67 419.69 248.34"/><polygon class="cls-9" points="568.36 248.6 492.91 287.65 418.29 247.02 419.13 167.35 494.58 128.31 569.2 168.93 568.36 248.6"/><polygon class="cls-10" points="492.18 366.14 416.72 405.18 342.11 364.56 342.95 284.89 418.4 245.84 493.01 286.47 492.18 366.14"/><polygon class="cls-9" points="341.25 364.7 265.8 403.75 191.18 363.13 192.02 283.46 267.47 244.41 342.08 285.03 341.25 364.7"/><polygon class="cls-9" points="344.19 127.41 268.74 166.45 194.13 125.83 194.96 46.16 270.42 7.12 345.03 47.74 344.19 127.41"/><polygon class="cls-9" points="268.01 245.28 192.56 284.33 117.94 243.71 118.78 164.04 194.23 124.99 268.85 165.61 268.01 245.28"/><polygon class="cls-9" points="494.37 128.19 418.92 167.23 344.3 126.61 345.14 46.94 420.59 7.89 495.2 48.52 494.37 128.19"/><polygon class="cls-11" points="411.36 182.26 344 217.52 277 181.57 277.37 110.35 344.73 75.09 411.73 111.04 411.36 182.26"/><polygon class="cls-12" points="478.37 291.56 411 326.82 344.01 290.87 344.37 219.66 411.73 184.39 478.73 220.34 478.37 291.56"/><polygon class="cls-13" points="342.76 291.29 275.4 326.55 208.4 290.6 208.77 219.39 276.13 184.12 343.13 220.07 342.76 291.29"/></g><g id="Layer_18" data-name="Layer 18"><text class="cls-14" transform="translate(179.99 217.1)">B</text><text class="cls-14" transform="translate(258.05 272.37)">U</text><text class="cls-14" transform="translate(395.43 272.36)">G</text><text class="cls-14" transform="translate(479.14 216.32)">G</text></g></g></svg>